<svg width="340.1525146484375px" height="75.18623046875px" xmlns="http://www.w3.org/2000/svg" viewBox="79.92374267578126 37.406884765625 340.1525146484375 75.18623046875" style="background: none;" preserveAspectRatio="xMidYMid"><defs><filter id="editing-lego" x="-100%" y="-100%" width="300%" height="300%"><feFlood flood-color="#000" result="f1"></feFlood><feFlood flood-color="#ffff00" result="f2"></feFlood><feMorphology operator="dilate" radius="3" in="SourceAlpha"></feMorphology><feConvolveMatrix order="5,5" divisor="1" result="cm1" kernelMatrix="0 1 1 1 0  1 0 0 0 1  1 0 0 0 1  1 0 0 0 1  0 1 1 1 0"></feConvolveMatrix><feComposite operator="in" in="f1" in2="cm1" result="c1"></feComposite><feMorphology operator="dilate" radius="3"></feMorphology><feConvolveMatrix order="5,5" divisor="1" result="cm2" kernelMatrix="0 1 1 1 0  1 0 0 0 1  1 0 0 0 1  1 0 0 0 1  0 1 1 1 0"></feConvolveMatrix><feComposite operator="in" in="f2" in2="cm2" result="c2"></feComposite><feMerge><feMergeNode in="c2"></feMergeNode><feMergeNode in="c1"></feMergeNode><feMergeNode in="SourceGraphic"></feMergeNode></feMerge></filter></defs><g filter="url(#editing-lego)"><g transform="translate(132.49562680721283, 90.10843753814697)"><path d="M0.60 0L0.60-4.92L2.10-4.92L2.10-18.42L0.60-18.42L0.60-23.34L14.37-23.34L14.37-23.34Q18.12-23.34 20.22-21.81L20.22-21.81L20.22-21.81Q22.32-20.28 22.32-17.43L22.32-17.43L22.32-17.43Q22.32-15.66 21.48-14.45L21.48-14.45L21.48-14.45Q20.64-13.23 19.52-12.62L19.52-12.62L19.52-12.62Q18.39-12 17.34-11.79L17.34-11.79L17.34-11.49L17.34-11.49Q19.47-11.28 21.18-10.14L21.18-10.14L21.18-10.14Q22.89-9 22.89-6.06L22.89-6.06L22.89-6.06Q22.89-2.91 20.52-1.45L20.52-1.45L20.52-1.45Q18.15 0 14.37 0L14.37 0L0.60 0ZM10.50-13.50L12.12-13.50L12.12-13.50Q12.99-13.50 13.42-13.96L13.42-13.96L13.42-13.96Q13.86-14.43 13.86-15.42L13.86-15.42L13.86-16.50L13.86-16.50Q13.86-17.49 13.42-17.95L13.42-17.95L13.42-17.95Q12.99-18.42 12.12-18.42L12.12-18.42L10.50-18.42L10.50-13.50ZM10.50-4.92L12.33-4.92L12.33-4.92Q13.20-4.92 13.63-5.38L13.63-5.38L13.63-5.38Q14.07-5.85 14.07-6.84L14.07-6.84L14.07-8.16L14.07-8.16Q14.07-9.15 13.63-9.62L13.63-9.62L13.63-9.62Q13.20-10.08 12.33-10.08L12.33-10.08L10.50-10.08L10.50-4.92ZM42.21-4.92L43.53-4.92L43.53 0L35.31 0L35.31-2.34L35.31-2.34Q33.15 0.42 29.91 0.42L29.91 0.42L29.91 0.42Q27.42 0.42 26.18-1.14L26.18-1.14L26.18-1.14Q24.93-2.70 24.93-5.43L24.93-5.43L24.93-11.76L23.61-11.76L23.61-16.68L31.83-16.68L31.83-6.84L31.83-6.84Q31.83-5.85 32.27-5.38L32.27-5.38L32.27-5.38Q32.70-4.92 33.57-4.92L33.57-4.92L33.57-4.92Q34.44-4.92 34.88-5.38L34.88-5.38L34.88-5.38Q35.31-5.85 35.31-6.84L35.31-6.84L35.31-11.76L33.69-11.76L33.69-16.68L42.21-16.68L42.21-4.92ZM57.18-17.10L57.18-17.10Q57.78-17.10 58.32-16.98L58.32-16.98L58.32-16.98Q58.86-16.86 59.22-16.68L59.22-16.68L59.22-10.95L59.22-10.95Q57.99-11.46 56.58-11.46L56.58-11.46L56.58-11.46Q54.69-11.46 53.67-10.47L53.67-10.47L53.67-10.47Q52.65-9.48 52.65-7.53L52.65-7.53L52.65-4.92L55.35-4.92L55.35 0L44.43 0L44.43-4.92L45.75-4.92L45.75-11.76L44.43-11.76L44.43-16.68L52.65-16.68L52.65-14.49L52.65-14.49Q53.49-15.75 54.57-16.43L54.57-16.43L54.57-16.43Q55.65-17.10 57.18-17.10L57.18-17.10ZM68.97 7.08L68.97 7.08Q66.81 7.08 64.84 6.78L64.84 6.78L64.84 6.78Q62.88 6.48 61.80 6.09L61.80 6.09L61.80 1.17L61.80 1.17Q64.98 1.74 67.50 1.74L67.50 1.74L67.50 1.74Q69.21 1.74 69.97 1.21L69.97 1.21L69.97 1.21Q70.74 0.69 70.74-0.75L70.74-0.75L70.74-2.04L70.74-2.04Q69.99-1.08 68.81-0.33L68.81-0.33L68.81-0.33Q67.62 0.42 66.09 0.42L66.09 0.42L66.09 0.42Q63.03 0.42 61.48-1.86L61.48-1.86L61.48-1.86Q59.94-4.14 59.94-8.34L59.94-8.34L59.94-8.34Q59.94-12.54 61.48-14.82L61.48-14.82L61.48-14.82Q63.03-17.10 66.09-17.10L66.09-17.10L66.09-17.10Q67.62-17.10 68.81-16.35L68.81-16.35L68.81-16.35Q69.99-15.60 70.74-14.64L70.74-14.64L70.74-16.68L78.96-16.68L78.96-11.76L77.64-11.76L77.64-1.20L77.64-1.20Q77.64 3.15 75.48 5.12L75.48 5.12L75.48 5.12Q73.32 7.08 68.97 7.08L68.97 7.08ZM69-4.92L69-4.92Q69.87-4.92 70.31-5.38L70.31-5.38L70.31-5.38Q70.74-5.85 70.74-6.84L70.74-6.84L70.74-9.84L70.74-9.84Q70.74-10.83 70.31-11.29L70.31-11.29L70.31-11.29Q69.87-11.76 69-11.76L69-11.76L69-11.76Q68.13-11.76 67.69-11.29L67.69-11.29L67.69-11.29Q67.26-10.83 67.26-9.84L67.26-9.84L67.26-6.84L67.26-6.84Q67.26-5.85 67.69-5.38L67.69-5.38L67.69-5.38Q68.13-4.92 69-4.92L69-4.92ZM88.74 0.42L88.74 0.42Q84.48 0.42 82.08-1.81L82.08-1.81L82.08-1.81Q79.68-4.05 79.68-8.34L79.68-8.34L79.68-8.34Q79.68-12.63 82.08-14.87L82.08-14.87L82.08-14.87Q84.48-17.10 88.74-17.10L88.74-17.10L88.74-17.10Q92.97-17.10 94.84-14.89L94.84-14.89L94.84-14.89Q96.72-12.69 96.72-9.42L96.72-9.42L96.72-7.26L87-7.26L87-7.08L87-7.08Q87-5.97 87.66-5.44L87.66-5.44L87.66-5.44Q88.32-4.92 89.85-4.92L89.85-4.92L89.85-4.92Q91.68-4.92 93.33-5.19L93.33-5.19L93.33-5.19Q94.98-5.46 96.21-5.88L96.21-5.88L96.21-1.08L96.21-1.08Q95.16-0.51 93.14-0.04L93.14-0.04L93.14-0.04Q91.11 0.42 88.74 0.42L88.74 0.42ZM87-10.56L90.48-10.56L90.48-10.92L90.48-10.92Q90.48-11.94 90.05-12.39L90.05-12.39L90.05-12.39Q89.61-12.84 88.74-12.84L88.74-12.84L88.74-12.84Q87.87-12.84 87.44-12.38L87.44-12.38L87.44-12.38Q87-11.91 87-10.92L87-10.92L87-10.56ZM110.43-17.10L110.43-17.10Q111.03-17.10 111.57-16.98L111.57-16.98L111.57-16.98Q112.11-16.86 112.47-16.68L112.47-16.68L112.47-10.95L112.47-10.95Q111.24-11.46 109.83-11.46L109.83-11.46L109.83-11.46Q107.94-11.46 106.92-10.47L106.92-10.47L106.92-10.47Q105.90-9.48 105.90-7.53L105.90-7.53L105.90-4.92L108.60-4.92L108.60 0L97.68 0L97.68-4.92L99.00-4.92L99.00-11.76L97.68-11.76L97.68-16.68L105.90-16.68L105.90-14.49L105.90-14.49Q106.74-15.75 107.82-16.43L107.82-16.43L107.82-16.43Q108.90-17.10 110.43-17.10L110.43-17.10ZM148.14-18.42L148.14-23.34L157.74-23.34L157.74-18.42L156.54-18.42L152.07 0L143.10 0L140.37-12.96L140.07-12.96L137.19 0L128.22 0L123.45-18.42L122.25-18.42L122.25-23.34L133.35-23.34L133.35-18.42L132.21-18.42L133.38-10.77L133.68-10.77L136.53-23.34L145.17-23.34L147.81-10.77L148.11-10.77L149.28-18.42L148.14-18.42ZM173.91-4.92L175.23-4.92L175.23 0L167.31 0L167.31-2.04L167.31-2.04Q166.65-1.08 165.47-0.33L165.47-0.33L165.47-0.33Q164.28 0.42 162.57 0.42L162.57 0.42L162.57 0.42Q160.32 0.42 159.03-0.78L159.03-0.78L159.03-0.78Q157.74-1.98 157.74-4.17L157.74-4.17L157.74-4.17Q157.74-9.84 167.37-9.99L167.37-9.99L167.37-9.99Q167.28-11.01 166.59-11.38L166.59-11.38L166.59-11.38Q165.90-11.76 164.25-11.76L164.25-11.76L164.25-11.76Q162.90-11.76 161.36-11.47L161.36-11.47L161.36-11.47Q159.81-11.19 158.52-10.71L158.52-10.71L158.52-16.23L158.52-16.23Q160.11-16.62 161.97-16.86L161.97-16.86L161.97-16.86Q163.83-17.10 165.60-17.10L165.60-17.10L165.60-17.10Q170.07-17.10 171.99-15.48L171.99-15.48L171.99-15.48Q173.91-13.86 173.91-10.47L173.91-10.47L173.91-4.92ZM167.31-6.84L167.31-7.02L167.31-7.02Q165.96-7.02 165.23-6.66L165.23-6.66L165.23-6.66Q164.49-6.30 164.49-5.46L164.49-5.46L164.49-5.46Q164.49-4.95 164.81-4.63L164.81-4.63L164.81-4.63Q165.12-4.32 165.69-4.32L165.69-4.32L165.69-4.32Q166.47-4.32 166.89-4.98L166.89-4.98L166.89-4.98Q167.31-5.64 167.31-6.84L167.31-6.84ZM184.98 7.08L184.98 7.08Q182.82 7.08 180.86 6.78L180.86 6.78L180.86 6.78Q178.89 6.48 177.81 6.09L177.81 6.09L177.81 1.17L177.81 1.17Q180.99 1.74 183.51 1.74L183.51 1.74L183.51 1.74Q185.22 1.74 185.99 1.21L185.99 1.21L185.99 1.21Q186.75 0.69 186.75-0.75L186.75-0.75L186.75-2.04L186.75-2.04Q186-1.08 184.81-0.33L184.81-0.33L184.81-0.33Q183.63 0.42 182.10 0.42L182.10 0.42L182.10 0.42Q179.04 0.42 177.50-1.86L177.50-1.86L177.50-1.86Q175.95-4.14 175.95-8.34L175.95-8.34L175.95-8.34Q175.95-12.54 177.50-14.82L177.50-14.82L177.50-14.82Q179.04-17.10 182.10-17.10L182.10-17.10L182.10-17.10Q183.63-17.10 184.81-16.35L184.81-16.35L184.81-16.35Q186-15.60 186.75-14.64L186.75-14.64L186.75-16.68L194.97-16.68L194.97-11.76L193.65-11.76L193.65-1.20L193.65-1.20Q193.65 3.15 191.49 5.12L191.49 5.12L191.49 5.12Q189.33 7.08 184.98 7.08L184.98 7.08ZM185.01-4.92L185.01-4.92Q185.88-4.92 186.31-5.38L186.31-5.38L186.31-5.38Q186.75-5.85 186.75-6.84L186.75-6.84L186.75-9.84L186.75-9.84Q186.75-10.83 186.31-11.29L186.31-11.29L186.31-11.29Q185.88-11.76 185.01-11.76L185.01-11.76L185.01-11.76Q184.14-11.76 183.71-11.29L183.71-11.29L183.71-11.29Q183.27-10.83 183.27-9.84L183.27-9.84L183.27-6.84L183.27-6.84Q183.27-5.85 183.71-5.38L183.71-5.38L183.71-5.38Q184.14-4.92 185.01-4.92L185.01-4.92ZM204.75 0.42L204.75 0.42Q200.49 0.42 198.09-1.81L198.09-1.81L198.09-1.81Q195.69-4.05 195.69-8.34L195.69-8.34L195.69-8.34Q195.69-12.63 198.09-14.87L198.09-14.87L198.09-14.87Q200.49-17.10 204.75-17.10L204.75-17.10L204.75-17.10Q209.07-17.10 211.44-14.83L211.44-14.83L211.44-14.83Q213.81-12.57 213.81-8.34L213.81-8.34L213.81-8.34Q213.81-4.05 211.41-1.81L211.41-1.81L211.41-1.81Q209.01 0.42 204.75 0.42L204.75 0.42ZM204.75-4.92L204.75-4.92Q205.62-4.92 206.06-5.38L206.06-5.38L206.06-5.38Q206.49-5.85 206.49-6.84L206.49-6.84L206.49-9.84L206.49-9.84Q206.49-10.83 206.06-11.29L206.06-11.29L206.06-11.29Q205.62-11.76 204.75-11.76L204.75-11.76L204.75-11.76Q203.88-11.76 203.45-11.29L203.45-11.29L203.45-11.29Q203.01-10.83 203.01-9.84L203.01-9.84L203.01-6.84L203.01-6.84Q203.01-5.85 203.45-5.38L203.45-5.38L203.45-5.38Q203.88-4.92 204.75-4.92L204.75-4.92ZM233.37-4.92L234.69-4.92L234.69 0L225.21 0L225.21-4.92L226.47-4.92L226.47-9.84L226.47-9.84Q226.47-10.83 226.05-11.29L226.05-11.29L226.05-11.29Q225.63-11.76 224.79-11.76L224.79-11.76L224.79-11.76Q222.99-11.76 222.99-9.84L222.99-9.84L222.99-4.92L224.25-4.92L224.25 0L214.77 0L214.77-4.92L216.09-4.92L216.09-11.76L214.77-11.76L214.77-16.68L222.99-16.68L222.99-14.34L222.99-14.34Q225.15-17.10 228.39-17.10L228.39-17.10L228.39-17.10Q230.88-17.10 232.13-15.54L232.13-15.54L232.13-15.54Q233.37-13.98 233.37-11.25L233.37-11.25L233.37-4.92Z" fill="#fff"></path></g></g><style>text {
  font-size: 64px;
  font-family: Arial Black;
  dominant-baseline: central;
  text-anchor: middle;
}</style></svg>